<svg xmlns="http://www.w3.org/2000/svg" xmlns:xlink="http://www.w3.org/1999/xlink" version="1.1" width="256" height="256" viewBox="0 0 256 256" xml:space="preserve">

<defs>
</defs>
<g style="stroke: none; stroke-width: 0; stroke-dasharray: none; stroke-linecap: butt; stroke-linejoin: miter; stroke-miterlimit: 10; fill: none; fill-rule: nonzero; opacity: 1;" transform="translate(1.4065934065934016 1.4065934065934016) scale(2.81 2.81)" >
	<path d="M 89.421 71.448 l -5.67 -5.67 l 2.396 -2.396 c 0.494 -0.494 0.691 -1.211 0.518 -1.888 c -0.173 -0.676 -0.69 -1.212 -1.36 -1.408 l -16.053 -4.707 c -0.691 -0.203 -1.443 -0.014 -1.955 0.499 c -0.512 0.511 -0.703 1.261 -0.499 1.955 l 4.707 16.054 c 0.196 0.67 0.732 1.187 1.408 1.36 c 0.676 0.172 1.394 -0.024 1.888 -0.518 l 2.396 -2.397 l 5.67 5.67 c 0.386 0.386 0.892 0.579 1.399 0.579 s 1.012 -0.193 1.399 -0.579 l 3.756 -3.756 C 90.193 73.473 90.193 72.221 89.421 71.448 z" style="stroke: none; stroke-width: 1; stroke-dasharray: none; stroke-linecap: butt; stroke-linejoin: miter; stroke-miterlimit: 10; fill: rgb(255,255,255); fill-rule: nonzero; opacity: 1;" transform=" matrix(1 0 0 1 0 0) " stroke-linecap="round" />
	<path d="M 54.644 57.384 h -7.316 c -1.639 0 -2.967 -1.328 -2.967 -2.967 V 27.719 c 0 -1.639 1.328 -2.967 2.967 -2.967 h 7.316 c 6.398 0 11.603 5.205 11.603 11.602 v 9.427 C 66.246 52.179 61.041 57.384 54.644 57.384 z M 50.295 51.45 h 4.349 c 3.125 0 5.668 -2.543 5.668 -5.668 v -9.427 c 0 -3.125 -2.543 -5.668 -5.668 -5.668 h -4.349 V 51.45 z" style="stroke: none; stroke-width: 1; stroke-dasharray: none; stroke-linecap: butt; stroke-linejoin: miter; stroke-miterlimit: 10; fill: rgb(255,255,255); fill-rule: nonzero; opacity: 1;" transform=" matrix(1 0 0 1 0 0) " stroke-linecap="round" />
	<path d="M 27.164 24.752 c -6.217 0 -11.274 5.058 -11.274 11.274 v 18.391 c 0 1.639 1.329 2.967 2.967 2.967 s 2.967 -1.328 2.967 -2.967 v -7.578 h 10.68 v 7.578 c 0 1.639 1.328 2.967 2.967 2.967 c 1.639 0 2.967 -1.328 2.967 -2.967 V 36.026 C 38.438 29.809 33.381 24.752 27.164 24.752 z M 21.824 40.905 v -4.879 c 0 -2.944 2.396 -5.34 5.34 -5.34 s 5.34 2.396 5.34 5.34 v 4.879 H 21.824 z" style="stroke: none; stroke-width: 1; stroke-dasharray: none; stroke-linecap: butt; stroke-linejoin: miter; stroke-miterlimit: 10; fill: rgb(255,255,255); fill-rule: nonzero; opacity: 1;" transform=" matrix(1 0 0 1 0 0) " stroke-linecap="round" />
	<path d="M 56.267 70.717 H 11.241 C 5.043 70.717 0 65.675 0 59.476 V 22.66 c 0 -6.199 5.043 -11.241 11.241 -11.241 h 59.653 c 6.199 0 11.241 5.043 11.241 11.241 v 24.393 c 0 1.639 -1.328 2.967 -2.967 2.967 s -2.967 -1.328 -2.967 -2.967 V 22.66 c 0 -2.926 -2.381 -5.307 -5.307 -5.307 H 11.241 c -2.926 0 -5.307 2.381 -5.307 5.307 v 36.816 c 0 2.926 2.381 5.307 5.307 5.307 h 45.026 c 1.639 0 2.967 1.328 2.967 2.967 S 57.906 70.717 56.267 70.717 z" style="stroke: none; stroke-width: 1; stroke-dasharray: none; stroke-linecap: butt; stroke-linejoin: miter; stroke-miterlimit: 10; fill: rgb(255,255,255); fill-rule: nonzero; opacity: 1;" transform=" matrix(1 0 0 1 0 0) " stroke-linecap="round" />
</g>
</svg>